<svg width="24" height="24" viewBox="0 0 24 24" fill="none" xmlns="http://www.w3.org/2000/svg">
<path d="M20.9333 3H4.06667C2.37299 3 1 4.34315 1 6V18C1 19.6569 2.37299 21 4.06667 21H20.9333C22.627 21 24 19.6569 24 18V6C24 4.34315 22.627 3 20.9333 3Z" fill="#071B65"/>
<path d="M3.97154 3H3.89714C2.43789 3 1.23425 4.083 1 5.5005L20.0285 21H20.1029C21.5621 21 22.7658 19.917 23 18.4995L3.97154 3Z" fill="white"/>
<path d="M16.8411 14.0008H15L22.3158 20C22.6008 19.7335 22.8343 19.4134 23 19.0511L16.8411 14.0008Z" fill="#B92932"/>
<path d="M1 4.94828L7.15889 10H9L1.68416 4C1.39915 4.26652 1.1657 4.58588 1 4.94828Z" fill="#B92932"/>
<path d="M3.89714 21H3.97154L23 5.5005C22.7658 4.08225 21.5621 3 20.1029 3H20.0285L1 18.4995C1.23425 19.9177 2.43789 21 3.89714 21Z" fill="white"/>
<path d="M15 3H10V21H15V3Z" fill="white"/>
<path d="M24 10H1V14H24V10Z" fill="white"/>
<path d="M14 3H11V21H14V3Z" fill="#B92932"/>
<path d="M24 14V11L1 11V14L24 14Z" fill="#B92932"/>
<path d="M20.8995 3L14 8.87395V10H14.5611L22 3.67691C21.6865 3.3711 21.3132 3.14255 20.8995 3Z" fill="#B92932"/>
<path d="M2 20.3373C2.31034 20.6352 2.67766 20.8598 3.08471 21L10 15.1215V14H9.43778L2 20.3373Z" fill="#B92932"/>
<path opacity="0.15" d="M20.9333 3H4.06667C2.3731 3 1 4.34325 1 6V18C1 19.6567 2.3731 21 4.06667 21H20.9333C22.6269 21 24 19.6567 24 18V6C24 4.34325 22.6269 3 20.9333 3ZM23.2333 18C23.2333 19.2405 22.2014 20.25 20.9333 20.25H4.06667C2.7986 20.25 1.76667 19.2405 1.76667 18V6C1.76667 4.7595 2.7986 3.75 4.06667 3.75H20.9333C22.2014 3.75 23.2333 4.7595 23.2333 6V18Z" fill="#102025"/>
<path opacity="0.2" d="M20.75 4H4.25C3.00725 4 2 5.00725 2 6.25V7C2 5.75725 3.00725 4.75 4.25 4.75H20.75C21.9928 4.75 23 5.75725 23 7V6.25C23 5.00725 21.9928 4 20.75 4Z" fill="white"/>
</svg>
